# xmcd CD database file
#
# Track frame offsets:
#	150
#	17087
#	28254
#	43531
#	56358
#	69910
#	96050
#	108845
#	120733
#	143695
#	154929
#	171988
#	187013
#	199399
#	210462
#	231589
#	242981
#	254954
#
# Disc length: 3560 seconds
#
# Revision: 0
# Processed by: cddbd v1.5.2PL0 Copyright (c) Steve Scherf et al.
# Submitted via: CDex 1.51
#
DISCID=0b0de612
DTITLE=Art Tatum - The Discovery of Jazz - CD1
DYEAR=2004
DGENRE=Jazz
TTITLE0=Can't We Be Friends
TTITLE1=Corinne, Corinna
TTITLE2=Chloe
TTITLE3=Cocktails For Two
TTITLE4=Cherokee
TTITLE5=Body And Soul
TTITLE6=Danny Boy
TTITLE7=Ain't Misbehavin'
TTITLE8=Come Rain Or Come Shine
TTITLE9=9.20 Special
TTITLE10=Boogie
TTITLE11=Begin The Beguine
TTITLE12=Beautiful Love
TTITLE13=After You've Gone
TTITLE14=Dark Eyes
TTITLE15=Battery Bounce
TTITLE16=Aunt Hagar's Blues
TTITLE17=Dardanella
EXTD=YEAR: 2004
EXTT0=
EXTT1=
EXTT2=
EXTT3=
EXTT4=
EXTT5=
EXTT6=
EXTT7=
EXTT8=
EXTT9=
EXTT10=
EXTT11=
EXTT12=
EXTT13=
EXTT14=
EXTT15=
EXTT16=
EXTT17=
PLAYORDER=
